<svg xmlns="http://www.w3.org/2000/svg" viewBox="0 0 20 20" width="20" height="20">
	<style>
		tspan { white-space:pre }
		.shp0 { fill: #000000 } 
	</style>
	<g id="Header">
		<g id="Search" style="opacity: 0.329">
			<path id="Icon Search" class="shp0" d="M18.01 16.17L16.31 18L11.12 12.86C10.18 13.54 9.03 13.95 7.8 13.95C4.6 13.95 2 11.27 2 7.97C2 4.67 4.6 2 7.8 2C11 2 13.59 4.67 13.59 7.97C13.59 9.08 13.28 10.1 12.78 10.99L18.01 16.17ZM7.72 4.15C5.76 4.15 4.16 5.85 4.16 7.95C4.16 10.04 5.76 11.75 7.72 11.75C9.68 11.75 11.28 10.04 11.28 7.95C11.28 5.85 9.68 4.15 7.72 4.15Z" />
		</g>
	</g>
</svg>